HIERARCHY
ROOT Hips
{
    OFFSET 0.000000 0.000000 0.000000
    CHANNELS 6 Xposition Yposition Zposition Zrotation Yrotation Xrotation
    JOINT LeftUpLeg
    {
        OFFSET 13.325864 -7.863496 7.041502
        CHANNELS 3 Zrotation Yrotation Xrotation
        JOINT LeftLeg
        {
            OFFSET 11.673183 -32.071877 0.000000
            CHANNELS 3 Zrotation Yrotation Xrotation
            JOINT LeftFoot
            {
                OFFSET 13.920840 -38.247189 0.000000
                CHANNELS 3 Zrotation Yrotation Xrotation
                JOINT LeftToeBase
                {
                    OFFSET 1.469294 -4.036875 11.263119
                    CHANNELS 3 Zrotation Yrotation Xrotation
                    End Site
                    {
                        OFFSET 0.000000 0.000000 0.000000
                    }
                }
            }
        }
    }
    JOINT RightUpLeg
    {
        OFFSET -12.713616 -7.863496 7.041502
        CHANNELS 3 Zrotation Yrotation Xrotation
        JOINT RightLeg
        {
            OFFSET -12.267709 -33.705254 0.000000
            CHANNELS 3 Zrotation Yrotation Xrotation
            JOINT RightFoot
            {
                OFFSET -14.244885 -39.137478 0.000000
                CHANNELS 3 Zrotation Yrotation Xrotation
                JOINT RightToeBase
                {
                    OFFSET -1.272135 -3.495182 11.934915
                    CHANNELS 3 Zrotation Yrotation Xrotation
                    End Site
                    {
                        OFFSET 0.000000 0.000000 0.000000
                    }
                }
            }
        }
    }
    JOINT Spine
    {
        OFFSET 0.089972 12.028386 0.451947
        CHANNELS 3 Zrotation Yrotation Xrotation
        JOINT Spine1
        {
            OFFSET 0.078626 11.837605 1.035070
            CHANNELS 3 Zrotation Yrotation Xrotation
            JOINT Neck1
            {
                OFFSET 0.302032 7.840919 1.834091
                CHANNELS 3 Zrotation Yrotation Xrotation
                JOINT Head
                {
                    OFFSET 0.040132 8.240373 -1.222916
                    CHANNELS 3 Zrotation Yrotation Xrotation
                    End Site
                    {
                        OFFSET 0.000000 0.000000 0.000000
                    }
                }
            }
            JOINT LeftShoulder
            {
                OFFSET 0.000000 0.000000 0.000000
                CHANNELS 3 Zrotation Yrotation Xrotation
                JOINT LeftArm
                {
                    OFFSET 16.210604 5.206903 0.628335
                    CHANNELS 3 Zrotation Yrotation Xrotation
                    JOINT LeftForeArm
                    {
                        OFFSET 31.198349 -0.000000 0.000000
                        CHANNELS 3 Zrotation Yrotation Xrotation
                        JOINT LeftHand
                        {
                            OFFSET 17.557415 -0.000000 0.000000
                            CHANNELS 3 Zrotation Yrotation Xrotation
                            End Site
                            {
                                OFFSET 0.000000 0.000000 0.000000
                            }
                        }
                    }
                }
            }
            JOINT RightShoulder
            {
                OFFSET 0.000000 0.000000 0.000000
                CHANNELS 3 Zrotation Yrotation Xrotation
                JOINT RightArm
                {
                    OFFSET -16.634611 3.842256 1.816763
                    CHANNELS 3 Zrotation Yrotation Xrotation
                    JOINT RightForeArm
                    {
                        OFFSET -29.655453 -0.000000 -0.000000
                        CHANNELS 3 Zrotation Yrotation Xrotation
                        JOINT RightHand
                        {
                            OFFSET -17.529644 -0.000000 0.000000
                            CHANNELS 3 Zrotation Yrotation Xrotation
                            End Site
                            {
                                OFFSET 0.000000 0.000000 0.000000
                            }
                        }
                    }
                }
            }
        }
    }
}
MOTION
Frames: 16
Frame Time: 0.016667
22.346745 76.866005 142.800491 -178.975998 7.221500 -142.438995 -10.143806 -19.829107 -66.573196 7.214901 15.510202 49.682510 1.063399 3.773798 -21.183084 0.093400 -1.971501 -5.426800 6.825802 21.384516 -72.391701 -9.539599 -17.142700 57.938099 -0.892700 -10.222003 -24.303200 -0.031300 1.141700 -3.138902 -11.661241 5.268765 -6.202773 -1.663600 1.920999 2.938101 -0.248021 15.853354 -5.965160 -2.264599 4.719697 9.836697 0.000000 0.000000 0.000000 -72.743408 -16.212202 39.051105 14.898701 -24.004801 -3.184599 0.000000 0.000000 -42.615604 0.000000 0.000000 0.000000 80.277702 11.269798 37.106899 -30.383314 41.219719 -11.661404 0.000000 0.000000 -8.717304 
22.553329 76.485008 142.809525 -179.205994 6.665802 -141.987000 -10.056504 -19.767811 -68.028931 7.537000 15.767901 50.877407 1.123500 2.830201 -21.226601 0.087100 -1.903401 -5.238805 7.003706 20.558104 -73.812195 -9.914004 -17.361202 59.200527 -0.958501 -9.657306 -24.365005 -0.051400 1.462500 -4.022300 -11.065928 4.985240 -5.425655 -1.582700 1.785099 2.817700 -0.559772 14.593336 -6.617928 -2.144600 4.359302 9.828599 0.000000 0.000000 0.000000 -72.873611 -16.866901 39.585812 14.910904 -24.021900 -3.189601 0.000000 0.000000 -42.131207 0.000000 0.000000 0.000000 79.752197 12.524804 37.275108 -30.491604 41.311100 -11.732800 0.000000 0.000000 -8.980196 
22.764994 76.070145 142.820831 -179.425003 6.118402 -141.513000 -9.966705 -19.660101 -69.580399 7.891700 16.039001 52.171608 1.180500 1.843200 -21.267014 0.082600 -1.853699 -5.101502 7.189198 19.752010 -75.292755 -10.313599 -17.582512 60.531513 -1.037901 -9.000500 -24.480200 -0.071000 1.719600 -4.731400 -10.435740 4.699263 -4.631347 -1.527800 1.651700 2.663200 -0.827257 13.394850 -7.298701 -2.032500 4.016500 9.818699 0.000000 0.000000 0.000000 -72.970100 -17.543903 40.087204 14.982401 -24.121508 -3.218702 0.000000 0.000000 -41.652500 0.000000 0.000000 0.000000 79.208511 13.820509 37.464718 -30.562201 41.370514 -11.779501 0.000000 0.000000 -9.292908 
22.984562 75.622543 142.829285 -179.619995 5.600502 -141.044998 -9.926307 -19.423906 -71.223923 8.289707 16.328211 53.599636 1.228600 0.726400 -21.226809 0.072500 -1.737100 -4.779600 7.406899 18.974003 -76.791901 -10.735806 -17.803308 61.920513 -1.125400 -8.318999 -24.661909 -0.089600 1.930799 -5.314602 -9.773553 4.430942 -3.773518 -1.513501 1.526300 2.483601 -1.045955 12.295286 -8.060401 -1.922301 3.701700 9.825596 0.000000 0.000000 0.000000 -72.996925 -18.279110 40.562916 15.143100 -24.345102 -3.284700 0.000000 0.000000 -41.229099 0.000000 0.000000 0.000000 78.650627 15.210201 37.696110 -30.568422 41.375717 -11.783604 0.000000 0.000000 -9.708500 
23.218803 75.133736 142.844528 -179.740997 5.196400 -140.522995 -9.891300 -18.998800 -73.056801 8.746600 16.641907 55.209698 1.269701 -0.509100 -21.149605 0.056600 -1.534500 -4.221004 7.672604 18.298210 -78.371925 -11.175308 -18.019808 63.349617 -1.217300 -7.635808 -24.894318 -0.107900 2.118000 -5.831800 -9.129004 4.247900 -2.944502 -1.515401 1.431101 2.312202 -1.213954 11.269654 -8.907104 -1.816200 3.407101 9.846904 0.000000 0.000000 0.000000 -72.949997 -19.073004 41.027897 15.403410 -24.705111 -3.392802 0.000000 0.000000 -40.927200 0.000000 0.000000 0.000000 78.093132 16.690905 37.935902 -30.526106 41.340111 -11.755605 0.000000 0.000000 -10.207805 
23.471109 74.589050 142.877823 -179.770996 4.942103 -139.886993 -9.824800 -18.372810 -75.159332 9.268908 16.977711 57.015499 1.312300 -1.854301 -21.129208 0.041200 -1.310600 -3.603700 7.977101 17.767401 -80.128998 -11.636704 -18.232807 64.832603 -1.311501 -6.942402 -25.155100 -0.124300 2.272800 -6.260100 -8.541324 4.201129 -2.244983 -1.521500 1.382400 2.147500 -1.320740 10.290149 -9.794566 -1.723300 3.124200 9.853101 0.000000 0.000000 0.000000 -72.840408 -19.926802 41.489204 15.750896 -25.181700 -3.539300 0.000000 0.000000 -40.697102 0.000000 0.000000 0.000000 77.556602 18.205997 38.111000 -30.437994 41.265804 -11.697399 0.000000 0.000000 -10.683807 
23.732445 73.987923 142.931458 -179.761002 4.767103 -139.151001 -9.740105 -17.649298 -77.479301 9.841801 17.319902 58.958206 1.353200 -3.252799 -21.164709 0.031100 -1.138200 -3.129202 8.324898 17.290800 -82.073196 -12.128802 -18.444504 66.396309 -1.411600 -6.219398 -25.456800 -0.133600 2.355902 -6.490198 -7.992140 4.228506 -1.659909 -1.535100 1.360999 1.976901 -1.380058 9.350086 -10.689241 -1.639400 2.850100 9.839700 0.000000 0.000000 0.000000 -72.699097 -20.846607 41.897701 16.161798 -25.739510 -3.715902 0.000000 0.000000 -40.486401 0.000000 0.000000 0.000000 77.024826 19.763699 38.214008 -30.254200 41.110294 -11.576400 0.000000 0.000000 -11.081003 
23.978540 73.351799 142.994095 -179.759003 4.593300 -138.492004 -9.712707 -16.918106 -79.747131 10.439695 17.649809 60.948101 1.382601 -4.649800 -21.190908 0.022300 -0.963500 -2.648500 8.776302 16.732502 -83.986115 -12.645196 -18.650299 68.019867 -1.519900 -5.428802 -25.795210 -0.137400 2.388900 -6.581702 -7.397143 4.265676 -0.942481 -1.606601 1.343300 1.752800 -1.399838 8.446068 -11.583059 -1.556900 2.582900 9.799000 0.000000 0.000000 0.000000 -72.516525 -21.842007 42.286007 16.626810 -26.363199 -3.920200 0.000000 0.000000 -40.297100 0.000000 0.000000 0.000000 76.489311 21.367811 38.266003 -29.988413 40.883526 -11.402106 0.000000 0.000000 -11.389804 
24.194157 72.692535 143.056763 -179.753998 4.412004 -138.029999 -9.751304 -16.200510 -81.782440 11.047507 17.958313 62.935925 1.400501 -5.995004 -21.209801 0.013600 -0.752200 -2.067201 9.359803 16.065905 -85.693108 -13.170899 -18.843002 69.655495 -1.636001 -4.528299 -26.149107 -0.138000 2.394301 -6.596600 -6.699481 4.295879 0.089924 -1.745900 1.322300 1.459100 -1.399244 7.571080 -12.520814 -1.485500 2.321001 9.718698 0.000000 0.000000 0.000000 -72.275932 -22.995007 42.719612 17.119593 -27.015198 -4.141499 0.000000 0.000000 -40.177597 0.000000 0.000000 0.000000 75.905907 23.064198 38.317310 -29.668406 40.607525 -11.193206 0.000000 0.000000 -11.687801 
24.392275 72.020851 143.111511 -179.737000 4.226902 -137.768997 -9.829901 -15.482793 -83.560104 11.660197 18.243301 64.907524 1.412802 -7.297407 -21.259314 0.006500 -0.522100 -1.434601 10.059006 15.320494 -87.160500 -13.699301 -19.020298 71.283897 -1.759800 -3.513200 -26.525101 -0.134800 2.366902 -6.520704 -5.935836 4.304101 1.451614 -1.915901 1.296001 1.093601 -1.378086 6.750892 -13.539483 -1.415800 2.070801 9.627104 0.000000 0.000000 0.000000 -71.966713 -24.316690 43.184299 17.624197 -27.673300 -4.373299 0.000000 0.000000 -40.092499 0.000000 0.000000 0.000000 75.261902 24.887806 38.414501 -29.270510 40.259907 -10.935102 0.000000 0.000000 -11.975107 
24.598860 71.333366 143.160049 -179.718994 4.048700 -137.585999 -9.917805 -14.755297 -85.236008 12.280901 18.506903 66.876541 1.416701 -8.574203 -21.309801 0.001800 -0.273000 -0.750000 10.797205 14.564909 -88.541306 -14.235902 -19.184010 72.923508 -1.883601 -2.446101 -26.906197 -0.127900 2.305001 -6.349303 -5.215765 4.260535 2.978606 -2.048201 1.260401 0.685100 -1.344651 6.067563 -14.651462 -1.343401 1.855301 9.565605 0.000000 0.000000 0.000000 -71.612503 -25.728903 43.543999 18.140903 -28.337196 -4.615901 0.000000 0.000000 -39.918804 0.000000 0.000000 0.000000 74.568130 26.886396 38.587601 -28.719402 39.770203 -10.580799 0.000000 0.000000 -12.164100 
24.817863 70.645874 143.193909 -179.673004 3.923301 -137.479004 -10.037411 -13.956908 -86.802818 12.910905 18.749804 68.848534 1.408900 -9.827302 -21.333710 0.000100 0.047800 0.131300 11.551701 13.869402 -89.804802 -14.772798 -19.331907 74.551498 -1.999300 -1.392100 -27.268600 -0.121500 2.247301 -6.189702 -4.582298 4.219752 4.652305 -2.131802 1.232301 0.235600 -1.293456 5.525758 -15.844423 -1.303400 1.677900 9.526298 0.000000 0.000000 0.000000 -71.246597 -27.194901 43.766300 18.650003 -28.981411 -4.860103 0.000000 0.000000 -39.578018 0.000000 0.000000 0.000000 73.845795 29.024117 38.763802 -28.028309 39.142303 -10.141598 0.000000 0.000000 -12.070603 
25.040817 69.958946 143.218750 -179.585007 3.860302 -137.395996 -10.155902 -13.097607 -88.334030 13.550900 18.972099 70.828003 1.387900 -11.023796 -21.313305 0.004700 0.441600 1.213500 12.282403 13.283496 -91.004601 -15.304502 -19.463007 76.152298 -2.103400 -0.381800 -27.598911 -0.116200 2.197400 -6.051502 -4.010544 4.211776 6.409997 -2.184600 1.221200 -0.243900 -1.234763 5.071660 -17.105412 -1.319600 1.523400 9.472000 0.000000 0.000000 0.000000 -70.854988 -28.780594 43.939293 19.110018 -29.555220 -5.085005 0.000000 0.000000 -39.170006 0.000000 0.000000 0.000000 73.099197 31.276300 38.847198 -27.216295 38.384705 -9.633198 0.000000 0.000000 -11.577705 
25.259821 69.279366 143.238510 -179.451996 3.879502 -137.358994 -10.299206 -12.163405 -89.782310 14.189604 19.170511 72.782822 1.363301 -12.142604 -21.308702 0.017700 0.859600 2.362501 12.982003 12.810601 -92.091705 -15.816605 -19.575102 77.684914 -2.197600 0.624900 -27.891907 -0.106000 2.099701 -5.781200 -3.493843 4.241240 8.280205 -2.198601 1.229000 -0.754200 -1.205892 4.690328 -18.416187 -1.353501 1.384900 9.387396 0.000000 0.000000 0.000000 -70.425613 -30.506395 44.094402 19.507799 -30.044813 -5.282700 0.000000 0.000000 -38.802998 0.000000 0.000000 0.000000 72.314423 33.635296 38.796398 -26.309711 37.512901 -9.075605 0.000000 0.000000 -10.721004 
25.457939 68.673157 143.210846 -179.227005 4.087600 -137.682007 -10.601606 -10.987004 -90.663399 14.798102 19.338503 74.627724 1.354901 -13.211109 -21.454905 0.040000 1.291100 3.550200 13.763200 12.406600 -92.578293 -16.267309 -19.662605 79.027031 -2.286601 1.709301 -28.158504 -0.090400 1.939199 -5.337698 -3.021484 4.392920 10.619241 -2.209000 1.285000 -1.326800 -1.231262 4.417231 -19.781151 -1.363401 1.270000 9.285700 0.000000 0.000000 0.000000 -69.943314 -32.376198 44.219715 19.845200 -30.455400 -5.452701 0.000000 0.000000 -38.511600 0.000000 0.000000 0.000000 71.480324 36.103210 38.607311 -25.332397 36.541794 -8.486999 0.000000 0.000000 -9.686796 
25.637995 68.120567 143.143677 -178.919998 4.494301 -138.287994 -11.020706 -9.573705 -91.094597 15.377410 19.479809 76.371056 1.357799 -14.260198 -21.710892 0.077900 1.801000 4.956100 14.586110 12.074805 -92.594498 -16.671209 -19.732210 80.225555 -2.364500 2.846001 -28.375702 -0.073700 1.751900 -4.820400 -2.623203 4.674082 13.344167 -2.248400 1.394300 -1.944301 -1.264218 4.227791 -21.202114 -1.340401 1.168900 9.183104 0.000000 0.000000 0.000000 -69.387825 -34.414001 44.312016 20.095509 -30.757219 -5.580107 0.000000 0.000000 -38.281612 0.000000 0.000000 0.000000 70.619621 38.646099 38.257725 -24.321507 35.502426 -7.892507 0.000000 0.000000 -8.676200 
